<?xml version="1.0" encoding="UTF-8" standalone="no"?>
<!DOCTYPE svg PUBLIC "-//W3C//DTD SVG 1.1//EN" "http://www.w3.org/Graphics/SVG/1.1/DTD/svg11.dtd">
<svg width="100%" height="100%" viewBox="0 0 256 256" version="1.1" xmlns="http://www.w3.org/2000/svg" xmlns:xlink="http://www.w3.org/1999/xlink" xml:space="preserve" xmlns:serif="http://www.serif.com/" style="fill-rule:evenodd;clip-rule:evenodd;stroke-linejoin:round;stroke-miterlimit:2;">
    <g transform="matrix(1,0,0,1,-1592.42,-169.009)">
        <g transform="matrix(0.839727,0,0,0.839727,275.005,-224.06)">
            <path d="M1737.35,718.403L1723.71,718.403L1723.71,704.766L1737.35,704.766L1737.35,694.108L1754.89,694.108L1754.89,667.154L1778.26,689.062L1778.26,718.403L1819.17,718.403L1819.17,677.491L1789.83,677.491L1767.91,654.108L1794.88,654.108L1794.88,636.578L1805.53,636.578L1805.53,622.94L1819.17,622.94L1819.17,636.578L1832.81,636.578L1832.81,622.94L1846.45,622.94L1846.45,636.578L1860.08,636.578L1860.08,650.216L1873.72,650.216L1873.72,663.853L1860.08,663.853L1860.08,677.491L1873.72,677.491L1873.72,691.128L1860.08,691.128L1860.08,704.766L1873.72,704.766L1873.72,718.403L1860.08,718.403L1860.08,732.041L1873.72,732.041L1873.72,745.678L1860.08,745.678L1860.08,759.316L1846.45,759.316L1846.45,772.954L1832.81,772.954L1832.81,759.316L1819.17,759.316L1819.17,772.954L1805.53,772.954L1805.53,759.316L1791.89,759.316L1791.89,772.954L1778.26,772.954L1778.26,759.316L1764.62,759.316L1764.62,772.954L1750.98,772.954L1750.98,759.316L1737.35,759.316L1737.35,745.678L1723.71,745.678L1723.71,732.041L1737.35,732.041L1737.35,718.403ZM1782.27,687.262L1782.27,714.23L1815,714.23L1815,681.5L1788.03,681.5L1702.86,593.642L1702.86,554.092L1654.86,554.092L1654.86,602.092L1694.41,602.092L1782.27,687.262ZM1768.86,548.092L1788.86,548.092L1788.86,568.092L1768.86,568.092L1768.86,588.092L1788.86,588.092L1788.86,608.092L1768.86,608.092L1768.86,628.092L1788.86,628.092L1788.86,648.092L1762.27,648.092L1708.86,591.122L1708.86,548.092L1648.86,548.092L1648.86,608.092L1691.89,608.092L1748.86,661.502L1748.86,688.092L1728.86,688.092L1728.86,668.092L1708.86,668.092L1708.86,688.092L1688.86,688.092L1688.86,668.092L1668.86,668.092L1668.86,688.092L1648.86,688.092L1648.86,668.092L1628.86,668.092L1628.86,688.092L1608.86,688.092L1608.86,668.092L1588.86,668.092L1588.86,648.092L1568.86,648.092L1568.86,628.092L1588.86,628.092L1588.86,608.092L1568.86,608.092L1568.86,588.092L1588.86,588.092L1588.86,568.092L1568.86,568.092L1568.86,548.092L1588.86,548.092L1588.86,528.092L1568.86,528.092L1568.86,508.092L1588.86,508.092L1588.86,488.092L1608.86,488.092L1608.86,468.092L1628.86,468.092L1628.86,488.092L1648.86,488.092L1648.86,468.092L1668.86,468.092L1668.86,488.092L1688.86,488.092L1688.86,468.092L1708.86,468.092L1708.86,488.092L1728.86,488.092L1728.86,468.092L1748.86,468.092L1748.86,488.092L1768.86,488.092L1768.86,508.092L1788.86,508.092L1788.86,528.092L1768.86,528.092L1768.86,548.092Z"/>
        </g>
    </g>
</svg>
